<svg width="58" height="58" viewBox="0 0 58 58" fill="none" xmlns="http://www.w3.org/2000/svg">
<circle cx="29" cy="29" r="29" fill="url(#paint0_linear_345_2274)"/>
<path fill-rule="evenodd" clip-rule="evenodd" d="M21.282 20.7298L22.4812 40.8859C22.4992 41.1863 22.6313 41.4684 22.8503 41.6748C23.0693 41.8812 23.3588 41.9962 23.6597 41.9965H34.3403C34.6412 41.9962 34.9308 41.8812 35.1498 41.6748C35.3688 41.4684 35.5008 41.1863 35.5188 40.8859L36.718 20.7298H21.282ZM38.4947 20.7298L37.2881 40.9907C37.2433 41.7422 36.9133 42.4483 36.3654 42.9646C35.8175 43.4809 35.0931 43.7685 34.3403 43.7687H23.6597C22.9069 43.7685 22.1825 43.4809 21.6347 42.9646C21.0868 42.4483 20.7567 41.7422 20.7119 40.9907L19.5053 20.7298H16.4468V19.696C16.4468 19.5002 16.5246 19.3123 16.6631 19.1738C16.8015 19.0354 16.9894 18.9576 17.1852 18.9576H40.8148C41.0107 18.9576 41.1985 19.0354 41.337 19.1738C41.4755 19.3123 41.5533 19.5002 41.5533 19.696V20.7298H38.4947ZM31.9537 15.7085C32.1496 15.7085 32.3374 15.7863 32.4759 15.9248C32.6143 16.0633 32.6921 16.2511 32.6921 16.4469V17.4807H25.3079V16.4469C25.3079 16.2511 25.3857 16.0633 25.5242 15.9248C25.6626 15.7863 25.8505 15.7085 26.0463 15.7085H31.9537ZM25.3079 24.5696H27.0801L27.8185 37.8613H26.0463L25.3079 24.5696ZM30.9199 24.5696H32.6921L31.9537 37.8613H30.1815L30.9199 24.5696Z" fill="white"/>
<defs>
<linearGradient id="paint0_linear_345_2274" x1="0" y1="29" x2="58" y2="29" gradientUnits="userSpaceOnUse">
<stop stop-color="#FE53BB"/>
<stop offset="1" stop-color="#14F4D2"/>
</linearGradient>
</defs>
</svg>
