<svg width="58" height="58" viewBox="0 0 58 58" fill="none" xmlns="http://www.w3.org/2000/svg">
<circle cx="29" cy="29" r="29" fill="url(#paint0_linear_402_1595)"/>
<path d="M18.5 42.5C17.675 42.5 16.969 42.2065 16.382 41.6195C15.795 41.0325 15.501 40.326 15.5 39.5V18.5C15.5 17.675 15.794 16.969 16.382 16.382C16.97 15.795 17.676 15.501 18.5 15.5H29V18.5H18.5V39.5H29V42.5H18.5ZM35 36.5L32.9375 34.325L36.7625 30.5H24.5V27.5H36.7625L32.9375 23.675L35 21.5L42.5 29L35 36.5Z" fill="white"/>
<defs>
<linearGradient id="paint0_linear_402_1595" x1="0" y1="29" x2="58" y2="29" gradientUnits="userSpaceOnUse">
<stop stop-color="#FE53BB"/>
<stop offset="1" stop-color="#14F4D2"/>
</linearGradient>
</defs>
</svg>
