<svg width="58" height="58" viewBox="0 0 58 58" fill="none" xmlns="http://www.w3.org/2000/svg">
<ellipse cx="28.9266" cy="29" rx="28.9266" ry="29" fill="url(#paint0_linear_515_503)"/>
<path d="M15.6101 42.3165C14.6946 42.3165 13.9112 41.9908 13.2598 41.3394C12.6084 40.688 12.2821 39.904 12.281 38.9874V19.0127C12.281 18.0972 12.6073 17.3137 13.2598 16.6624C13.9123 16.011 14.6957 15.6847 15.6101 15.6836H42.243C43.1585 15.6836 43.9425 16.0098 44.595 16.6624C45.2475 17.3149 45.5732 18.0983 45.5721 19.0127V38.9874C45.5721 39.9029 45.2464 40.6869 44.595 41.3394C43.9436 41.9919 43.1596 42.3176 42.243 42.3165H15.6101ZM28.9266 30.6646L15.6101 22.3418V38.9874H42.243V22.3418L28.9266 30.6646ZM28.9266 27.3355L42.243 19.0127H15.6101L28.9266 27.3355ZM15.6101 22.3418V19.0127V38.9874V22.3418Z" fill="white"/>
<defs>
<linearGradient id="paint0_linear_515_503" x1="0" y1="29" x2="57.8532" y2="29" gradientUnits="userSpaceOnUse">
<stop stop-color="#FE53BB"/>
<stop offset="1" stop-color="#14F4D2"/>
</linearGradient>
</defs>
</svg>
