<svg width="18" height="18" viewBox="0 0 18 18" fill="none" xmlns="http://www.w3.org/2000/svg">
<path fill-rule="evenodd" clip-rule="evenodd" d="M12.4508 3.5353C12.325 3.3343 12.1396 3.17752 11.9206 3.08678C11.7015 2.99604 11.4596 2.97587 11.2286 3.02906L9.58862 3.40578C9.42056 3.44441 9.24592 3.44441 9.07785 3.40578L7.43791 3.02906C7.20685 2.97587 6.96495 2.99604 6.74589 3.08678C6.52683 3.17752 6.3415 3.3343 6.21571 3.5353L5.32187 4.9619C5.23066 5.10784 5.10753 5.23098 4.96159 5.32311L3.53508 6.21702C3.33444 6.3427 3.1779 6.52774 3.08719 6.74644C2.99648 6.96514 2.97609 7.20666 3.02887 7.43747L3.40557 9.07934C3.44406 9.24712 3.44406 9.42144 3.40557 9.58923L3.02887 11.2302C2.97589 11.4611 2.99617 11.7028 3.08689 11.9217C3.17761 12.1406 3.33427 12.3258 3.53508 12.4516L4.96159 13.3455C5.10753 13.4367 5.23066 13.5598 5.32278 13.7058L6.21663 15.1324C6.47384 15.5437 6.96454 15.7471 7.43791 15.6386L9.07785 15.2619C9.24592 15.2233 9.42056 15.2233 9.58862 15.2619L11.2295 15.6386C11.4604 15.6916 11.7021 15.6713 11.921 15.5806C12.1399 15.4899 12.325 15.3332 12.4508 15.1324L13.3446 13.7058C13.4358 13.5598 13.5589 13.4367 13.7049 13.3455L15.1323 12.4516C15.3331 12.3256 15.4897 12.1402 15.5803 11.9212C15.6708 11.7021 15.6909 11.4603 15.6376 11.2293L15.2618 9.58923C15.2232 9.42115 15.2232 9.2465 15.2618 9.07843L15.6385 7.43747C15.6916 7.20662 15.6714 6.96497 15.5809 6.74609C15.4903 6.52721 15.3339 6.34197 15.1332 6.2161L13.7058 5.3222C13.5601 5.23082 13.4369 5.10764 13.3455 4.9619L12.4508 3.5353ZM11.992 7.29974C12.0484 7.196 12.0624 7.07441 12.031 6.96058C11.9996 6.84674 11.9252 6.74951 11.8236 6.68937C11.722 6.62922 11.601 6.61083 11.4861 6.63808C11.3712 6.66533 11.2714 6.73608 11.2076 6.83545L8.82247 10.8726L7.38228 9.49345C7.33955 9.44958 7.28843 9.41476 7.23196 9.39108C7.17548 9.36739 7.11482 9.35532 7.05358 9.35559C6.99235 9.35585 6.93179 9.36845 6.87553 9.39263C6.81926 9.41681 6.76844 9.45207 6.7261 9.49632C6.68376 9.54056 6.65076 9.59288 6.62908 9.65015C6.60739 9.70743 6.59746 9.76848 6.59988 9.82967C6.6023 9.89087 6.61702 9.95095 6.64316 10.0063C6.6693 10.0617 6.70632 10.1113 6.75202 10.152L8.60721 11.9298C8.65687 11.9773 8.7166 12.0129 8.78196 12.0341C8.84733 12.0552 8.91662 12.0614 8.98468 12.052C9.05273 12.0426 9.11779 12.0179 9.17498 11.9799C9.23218 11.9418 9.28004 11.8913 9.31499 11.8322L11.992 7.29974Z" fill="url(#paint0_linear_225_207)"/>
<g clip-path="url(#clip0_225_207)">
<path d="M6.91213 10.2298L8.89867 11.8065L12.0229 7.57894" stroke="white" stroke-width="2.25" stroke-linecap="round" stroke-linejoin="round"/>
</g>
<defs>
<linearGradient id="paint0_linear_225_207" x1="9.33375" y1="3" x2="9.33375" y2="15.6675" gradientUnits="userSpaceOnUse">
<stop stop-color="#14F4D2"/>
<stop offset="1" stop-color="#FE53BB"/>
</linearGradient>
<clipPath id="clip0_225_207">
<rect width="8.19836" height="8.19836" fill="white" transform="translate(5 5.93663) rotate(-6.5601)"/>
</clipPath>
</defs>
</svg>
