<svg width="933" height="762" viewBox="0 0 933 762" fill="none" xmlns="http://www.w3.org/2000/svg">
<g id="No Results">
<g id="circle">
<path id="Stroke 1" d="M31.2627 350.54V358.43" stroke="#D2D8DF" stroke-width="2.921" stroke-linecap="round"/>
<g id="Group 8">
<path id="Stroke 2" d="M13.541 354.814L19.9885 361.451" stroke="#D2D8DF" stroke-width="2.921" stroke-linecap="round"/>
<path id="Stroke 4" d="M6 372.482H15.1166" stroke="#D2D8DF" stroke-width="2.921" stroke-linecap="round"/>
<path id="Stroke 6" d="M12.8013 390.464L19.2487 383.827" stroke="#D2D8DF" stroke-width="2.921" stroke-linecap="round"/>
</g>
<path id="Stroke 9" d="M31.2627 392.621V384.731" stroke="#D2D8DF" stroke-width="2.921" stroke-linecap="round"/>
<path id="Stroke 10" d="M44.4132 387.361L39.1531 382.101" stroke="#D2D8DF" stroke-width="2.921" stroke-linecap="round"/>
<path id="Stroke 11" d="M54.9337 374.21H47.0435" stroke="#D2D8DF" stroke-width="2.921" stroke-linecap="round"/>
<path id="Stroke 12" d="M49.6735 355.8L44.4133 361.06" stroke="#D2D8DF" stroke-width="2.921" stroke-linecap="round"/>
<path id="Stroke 13" d="M454.705 6V11.2602" stroke="#D2D8DF" stroke-width="2.921" stroke-linecap="round"/>
<path id="Stroke 15" d="M438.925 21.7808H444.185" stroke="#D2D8DF" stroke-width="2.921" stroke-linecap="round"/>
<path id="Stroke 16" d="M454.705 37.5607V32.3005" stroke="#D2D8DF" stroke-width="2.921" stroke-linecap="round"/>
<path id="Stroke 17" d="M467.856 21.7808H462.595" stroke="#D2D8DF" stroke-width="2.921" stroke-linecap="round"/>
<path id="Stroke 18" d="M149.616 226.926V234.816" stroke="#D2D8DF" stroke-width="2.921" stroke-linecap="round"/>
<path id="Stroke 19" d="M125.946 250.597H133.836" stroke="#D2D8DF" stroke-width="2.921" stroke-linecap="round"/>
<path id="Stroke 20" d="M149.616 271.638V263.747" stroke="#D2D8DF" stroke-width="2.921" stroke-linecap="round"/>
<path id="Stroke 21" d="M170.657 250.597H162.767" stroke="#D2D8DF" stroke-width="2.921" stroke-linecap="round"/>
<g id="Group 42">
<path id="Stroke 22" d="M715.75 513.708C722.036 513.708 727.133 518.806 727.133 525.093C727.133 531.383 722.036 536.479 715.75 536.479C709.465 536.479 704.367 531.383 704.367 525.093" stroke="#D2D8DF" stroke-width="2.921" stroke-linecap="round"/>
<path id="Fill 26" fill-rule="evenodd" clip-rule="evenodd" d="M767.843 410.409C774.602 408.301 784.962 400.035 787.36 391.142C789.535 399.003 798.652 408.301 806.878 409.005C797.618 412.283 788.765 422.023 787.36 429.675C786.405 421.876 774.16 411.546 767.843 410.409Z" fill="#EBECEE"/>
<path id="Fill 28" fill-rule="evenodd" clip-rule="evenodd" d="M74.0581 510.2C77.4386 509.146 82.6165 505.014 83.8156 500.567C84.9029 504.496 89.4601 509.146 93.573 509.499C88.9444 511.136 84.5189 516.007 83.8156 519.833C83.3377 515.933 77.2153 510.767 74.0581 510.2Z" fill="#EBECEE"/>
<path id="Fill 30" fill-rule="evenodd" clip-rule="evenodd" d="M136.792 144.334C136.792 149.212 132.84 153.163 127.966 153.163C123.089 153.163 119.139 149.212 119.139 144.334C119.139 139.459 123.089 135.505 127.966 135.505C132.84 135.505 136.792 139.459 136.792 144.334Z" fill="#D1D8DF"/>
<path id="Fill 32" fill-rule="evenodd" clip-rule="evenodd" d="M726.179 168.04C726.179 176.19 719.572 182.796 711.427 182.796C703.277 182.796 696.672 176.19 696.672 168.04C696.672 159.891 703.277 153.284 711.427 153.284C719.572 153.284 726.179 159.891 726.179 168.04Z" fill="#EBECEE"/>
<path id="Fill 34" fill-rule="evenodd" clip-rule="evenodd" d="M930.521 128.061C930.521 134.526 925.283 139.766 918.821 139.766C912.357 139.766 907.119 134.526 907.119 128.061C907.119 121.595 912.357 116.355 918.821 116.355C925.283 116.355 930.521 121.595 930.521 128.061Z" fill="#EBECEE"/>
<path id="Stroke 36" fill-rule="evenodd" clip-rule="evenodd" d="M301.749 674.743C301.749 678.819 298.447 682.122 294.372 682.122C290.299 682.122 286.997 678.819 286.997 674.743C286.997 670.667 290.299 667.364 294.372 667.364C298.447 667.364 301.749 670.667 301.749 674.743Z" stroke="#D2D8DF" stroke-width="2.921" stroke-linecap="round"/>
<path id="Stroke 38" fill-rule="evenodd" clip-rule="evenodd" d="M297.36 87.6153C297.36 92.4931 293.408 96.444 288.534 96.444C283.66 96.444 279.708 92.4931 279.708 87.6153C279.708 82.7398 283.66 78.7866 288.534 78.7866C293.408 78.7866 297.36 82.7398 297.36 87.6153Z" stroke="#D2D8DF" stroke-width="2.921" stroke-linecap="round"/>
<path id="Stroke 40" fill-rule="evenodd" clip-rule="evenodd" d="M522.502 756.456C516.862 758.602 510.55 755.768 508.404 750.128C506.258 744.487 509.09 738.171 514.732 736.027C520.37 733.88 526.682 736.712 528.828 742.354C530.976 747.995 528.142 754.309 522.502 756.456Z" stroke="#D2D8DF" stroke-width="2.921" stroke-linecap="round"/>
</g>
</g>
<g id="search">
<g id="documents">
<path id="Fill 1" fill-rule="evenodd" clip-rule="evenodd" d="M519.14 547.796H303.462C288.281 547.796 275.855 535.333 275.855 520.101V212.533C275.855 197.302 288.281 184.845 303.462 184.845H519.14C534.327 184.845 546.753 197.302 546.753 212.533V520.101C546.753 535.333 534.327 547.796 519.14 547.796Z" fill="#C8C8C8"/>
<path id="Fill 3" fill-rule="evenodd" clip-rule="evenodd" d="M500.729 560.946H285.051C269.87 560.946 257.444 548.483 257.444 533.252V225.684C257.444 210.452 269.87 197.996 285.051 197.996H500.729C515.916 197.996 528.342 210.452 528.342 225.684V533.252C528.342 548.483 515.916 560.946 500.729 560.946Z" fill="#E8EBF2"/>
<path id="Fill 5" fill-rule="evenodd" clip-rule="evenodd" d="M482.822 571.328H266.698C251.486 571.328 239.034 558.916 239.034 543.748V237.453C239.034 222.285 251.486 209.88 266.698 209.88H482.822C498.04 209.88 510.492 222.285 510.492 237.453V543.748C510.492 558.916 498.04 571.328 482.822 571.328Z" fill="#D8DBEA"/>
<path id="Fill 8" fill-rule="evenodd" clip-rule="evenodd" d="M482.822 571.328H266.698C251.486 571.328 239.034 558.916 239.034 543.748V237.453C239.034 222.285 251.486 209.88 266.698 209.88H482.822C498.04 209.88 510.492 222.285 510.492 237.453V543.748C510.492 558.916 498.04 571.328 482.822 571.328Z" fill="#F1F2F7"/>
<path id="Fill 11" fill-rule="evenodd" clip-rule="evenodd" d="M451.67 303.199H292.036C287.477 303.199 283.745 299.649 283.745 295.312C283.745 290.969 287.477 287.418 292.036 287.418H451.67C456.229 287.418 459.96 290.969 459.96 295.312C459.96 299.649 456.229 303.199 451.67 303.199Z" fill="#C8C8C8"/>
<path id="Fill 13" fill-rule="evenodd" clip-rule="evenodd" d="M451.67 350.54H292.036C287.477 350.54 283.745 346.99 283.745 342.652C283.745 338.309 287.477 334.759 292.036 334.759H451.67C456.229 334.759 459.96 338.309 459.96 342.652C459.96 346.99 456.229 350.54 451.67 350.54Z" fill="#C8C8C8"/>
<path id="Fill 15" fill-rule="evenodd" clip-rule="evenodd" d="M451.67 397.881H292.036C287.477 397.881 283.745 394.331 283.745 389.994C283.745 385.657 287.477 382.101 292.036 382.101H451.67C456.229 382.101 459.96 385.657 459.96 389.994C459.96 394.331 456.229 397.881 451.67 397.881Z" fill="#C8C8C8"/>
<path id="Fill 17" fill-rule="evenodd" clip-rule="evenodd" d="M451.67 445.223H292.036C287.477 445.223 283.745 441.673 283.745 437.336C283.745 432.993 287.477 429.442 292.036 429.442H451.67C456.229 429.442 459.96 432.993 459.96 437.336C459.96 441.673 456.229 445.223 451.67 445.223Z" fill="#C8C8C8"/>
<path id="Fill 19" fill-rule="evenodd" clip-rule="evenodd" d="M375.362 492.564H292.071C287.493 492.564 283.745 489.014 283.745 484.677C283.745 480.334 287.493 476.784 292.071 476.784H375.362C379.941 476.784 383.688 480.334 383.688 484.677C383.688 489.014 379.941 492.564 375.362 492.564Z" fill="#C8C8C8"/>
</g>
<g id="search_2">
<path id="Fill 21" fill-rule="evenodd" clip-rule="evenodd" d="M543.478 431.38C511.558 463.295 462.141 466.895 426.265 442.255C421.68 439.049 417.316 435.449 413.246 431.38C411.151 429.292 409.177 427.137 407.316 424.869C403.594 420.338 400.335 415.506 397.664 410.514C392.959 402.082 389.759 393.134 388.012 383.886C382.377 354.882 390.804 323.663 413.246 301.231C435.743 278.731 466.967 270.36 495.976 275.941C505.219 277.741 514.175 280.94 522.608 285.591C527.608 288.321 532.374 291.58 536.912 295.301C539.174 297.155 541.33 299.136 543.418 301.231C547.494 305.299 551.149 309.656 554.295 314.247C578.946 350.11 575.338 399.525 543.478 431.38Z" fill="white" fill-opacity="0.1"/>
<path id="Fill 23" fill-rule="evenodd" clip-rule="evenodd" d="M534.546 425.094C501.337 458.31 447.52 458.303 414.304 425.094C381.133 391.923 381.133 338.099 414.348 304.89C447.52 271.718 501.337 271.718 534.509 304.89C567.718 338.099 567.718 391.923 534.546 425.094ZM551.589 287.828C508.962 245.201 439.887 245.201 397.261 287.828C354.641 330.448 354.603 399.566 397.224 442.193C436.019 480.976 496.826 484.473 539.594 452.63C543.772 449.516 547.795 446.024 551.632 442.193C555.463 438.355 558.955 434.332 562.063 430.155C593.906 387.38 590.378 326.617 551.589 287.828Z" fill="#C8C8C8"/>
<path id="Fill 25" fill-rule="evenodd" clip-rule="evenodd" d="M719.344 602.874L717.554 604.663C705.715 616.509 686.327 616.509 674.482 604.663L565.163 495.345L610.025 450.483L719.344 559.801C731.189 571.647 731.189 591.028 719.344 602.874Z" fill="#FE53BB"/>
<path id="Fill 27" fill-rule="evenodd" clip-rule="evenodd" d="M564.42 426.812L596.724 459.116L573.79 482.044L541.493 449.74C545.755 446.562 549.854 442.999 553.776 439.089C557.686 435.18 561.248 431.075 564.42 426.812Z" fill="#C8C8C8"/>
<path id="Fill 29" fill-rule="evenodd" clip-rule="evenodd" d="M717.708 558.457L673.132 603.028L665.106 594.996L709.677 550.426L717.708 558.457Z" fill="#C8C8C8"/>
<path id="Fill 31" fill-rule="evenodd" clip-rule="evenodd" d="M612.504 452.027L566.707 497.825L559.903 491.021L605.7 445.223L612.504 452.027Z" fill="#C8C8C8"/>
<path id="Fill 33" fill-rule="evenodd" clip-rule="evenodd" d="M512.562 293.464L400.248 405.772C396.019 398.191 393.143 390.147 391.578 381.833L488.621 284.788C496.931 286.413 504.981 289.283 512.562 293.464Z" fill="white" fill-opacity="0.5"/>
<path id="Fill 35" fill-rule="evenodd" clip-rule="evenodd" d="M549.383 320.158L427.959 434.702C423.611 431.84 419.472 428.618 415.613 424.977C413.626 423.102 411.747 421.18 409.989 419.15L532.891 303.198C535.043 304.863 537.087 306.636 539.067 308.51C542.927 312.151 546.399 316.05 549.383 320.158Z" fill="white" fill-opacity="0.5"/>
</g>
</g>
</g>
</svg>
